# xmcd
#
# Track frame offsets:
#	150
#	13938
#	26384
#	38793
#	50903
#	62734
#	76810
#	89906
#	105024
#	119458
#	132964
#	145486
#	157097
#	168533
#	183967
#	196917
#	209519
#	224431
#	236738
#	250551
#
# Disc length: 3510 seconds
#
# Revision: 0
# Processed by: cddbd v1.4PL0 Copyright (c) Steve Scherf et al.
# Submitted via: dBpowerAMP V4.0
#
DISCID=220db414
DTITLE=Bill Monroe - The Father Of Bluegrass
DYEAR=1900
DGENRE=Bluegrass
TTITLE0=Blue Moon Of Kentucky
TTITLE1=Mule Skinner Blues
TTITLE2=Kentucky Waltz
TTITLE3=Footprints In The Snow
TTITLE4=Rocky Road Blues
TTITLE5=Blue Yodel No. 4
TTITLE6=Blue Yodel No. 7
TTITLE7=Sweetheart, You Done Me Wrong
TTITLE8=Little Cabin On The Hill
TTITLE9=My Rose Of Old Kentucky
TTITLE10=Molly And Tenbrooks
TTITLE11=Orange Blossom Special
TTITLE12=Honky Tonk Swing
TTITLE13=In The Pines
TTITLE14=Heavy Traffic Ahead
TTITLE15=Toy Heart
TTITLE16=Mother's Only Sleeping
TTITLE17=No Letter In The Mail
TTITLE18=Six White Horses
TTITLE19=Tennessee Blues
EXTD=
EXTT0=
EXTT1=
EXTT2=
EXTT3=
EXTT4=
EXTT5=
EXTT6=
EXTT7=
EXTT8=
EXTT9=
EXTT10=
EXTT11=
EXTT12=
EXTT13=
EXTT14=
EXTT15=
EXTT16=
EXTT17=
EXTT18=
EXTT19=
PLAYORDER=
